# 四棱锥测试模型：底面 1x1，高 1，含逐面法线与 UV
v -0.5 0.0 -0.5
v  0.5 0.0 -0.5
v  0.5 0.0  0.5
v -0.5 0.0  0.5
v  0.0 1.0  0.0

vt 0.0 0.0
vt 1.0 0.0
vt 1.0 1.0
vt 0.0 1.0
vt 0.5 0.5

vn  0.0000 -1.0000  0.0000
vn  0.0000  0.4472  0.8944
vn  0.8944  0.4472  0.0000
vn  0.0000  0.4472 -0.8944
vn -0.8944  0.4472  0.0000

# 底面 (y-)
f 1/1/1 2/2/1 3/3/1
f 1/1/1 3/3/1 4/4/1
# 前面 (z+)
f 4/4/2 3/3/2 5/5/2
# 右面 (x+)
f 3/3/3 2/2/3 5/5/3
# 背面 (z-)
f 2/2/4 1/1/4 5/5/4
# 左面 (x-)
f 1/1/5 4/4/5 5/5/5
